<svg width="36" height="22" viewBox="0 0 36 22" fill="none" xmlns="http://www.w3.org/2000/svg" xmlns:xlink="http://www.w3.org/1999/xlink">
<path d="M32.822,0L30.813,0C29.703,0 28.803,0.895 28.803,2L28.803,19.333C28.803,20.438 29.703,21.333 30.813,21.333L32.822,21.333C33.932,21.333 34.832,20.438 34.832,19.333L34.832,2C34.832,0.895 33.932,0 32.822,0ZM21.435,4.667L23.444,4.667C24.554,4.667 25.454,5.562 25.454,6.667L25.454,19.333C25.454,20.438 24.554,21.333 23.444,21.333L21.435,21.333C20.325,21.333 19.425,20.438 19.425,19.333L19.425,6.667C19.425,5.562 20.325,4.667 21.435,4.667ZM14.066,9.333L12.056,9.333C10.947,9.333 10.047,10.229 10.047,11.333L10.047,19.333C10.047,20.438 10.947,21.333 12.056,21.333L14.066,21.333C15.176,21.333 16.076,20.438 16.076,19.333L16.076,11.333C16.076,10.229 15.176,9.333 14.066,9.333ZM4.688,13.333L2.678,13.333C1.568,13.333 0.669,14.229 0.669,15.333L0.669,19.333C0.669,20.438 1.568,21.333 2.678,21.333L4.688,21.333C5.798,21.333 6.698,20.438 6.698,19.333L6.698,15.333C6.698,14.229 5.798,13.333 4.688,13.333Z" clip-rule="evenodd" fill-rule="evenodd" fill="#000000"/>
</svg>
