<svg width="46" height="46" viewBox="0 0 46 46" fill="none" xmlns="http://www.w3.org/2000/svg" xmlns:xlink="http://www.w3.org/1999/xlink">
<path d="M10.347,27.742L8.764,33.648L2.981,33.77C1.253,30.565 0.273,26.898 0.273,23C0.273,19.231 1.189,15.677 2.814,12.548L2.815,12.548L7.964,13.492L10.219,18.61C9.747,19.986 9.49,21.463 9.49,23C9.49,24.668 9.792,26.267 10.347,27.742Z" fill="#FBBB00"/>
<path d="M45.33,18.755C45.591,20.13 45.727,21.55 45.727,23.001C45.727,24.628 45.556,26.215 45.23,27.746C44.124,32.956 41.233,37.505 37.228,40.724L37.227,40.723L30.742,40.392L29.825,34.663C32.482,33.105 34.559,30.666 35.653,27.746L23.5,27.746L23.5,18.755L35.83,18.755L45.33,18.755Z" fill="#518EF8"/>
<path d="M37.227,40.724L37.228,40.725C33.333,43.856 28.385,45.729 23,45.729C14.344,45.729 6.82,40.891 2.981,33.772L10.346,27.743C12.265,32.866 17.207,36.512 23,36.512C25.489,36.512 27.822,35.839 29.824,34.664L37.227,40.724Z" fill="#28B446"/>
<path d="M37.507,5.505L30.145,11.533C28.073,10.238 25.624,9.49 23.001,9.49C17.076,9.49 12.043,13.303 10.22,18.609L2.816,12.548L2.815,12.548C6.597,5.255 14.217,0.273 23.001,0.273C28.515,0.273 33.571,2.237 37.507,5.505Z" fill="#F14336"/>
</svg>
