<svg width="84" height="110" viewBox="0 0 84 110" fill="none" xmlns="http://www.w3.org/2000/svg" xmlns:xlink="http://www.w3.org/1999/xlink">
<circle cx="41.28" cy="41.4" r="9.6" fill="#001F23"/>
<path d="M16.8,41.4L0,41.4L0,73.407L0,73.407C0,77.203 3.761,80.28 8.4,80.28C13.039,80.28 16.8,77.203 16.8,73.407C16.8,73.401 16.8,73.395 16.8,73.389L16.8,41.4Z" clip-rule="evenodd" fill-rule="evenodd" fill="#001F23"/>
<path d="M47.52,67.32L30.72,67.32L30.72,100.68L30.72,100.92L30.724,100.92C30.851,105.448 34.561,109.08 39.12,109.08C43.679,109.08 47.39,105.448 47.517,100.92L47.52,100.92L47.52,100.68L47.52,67.32Z" clip-rule="evenodd" fill-rule="evenodd" fill="#001F23"/>
<path d="M30.72,81.518C36.158,82.97 41.87,83.307 47.507,82.467C56.487,81.127 64.778,76.873 71.102,70.36C77.427,63.846 81.435,55.434 82.51,46.418C83.584,37.403 81.665,28.284 77.048,20.467C72.431,12.649 65.372,6.566 56.958,3.154C48.544,-0.258 39.242,-0.809 30.485,1.585C21.727,3.979 13.998,9.185 8.49,16.402C2.982,23.62 -0.001,32.448 0,41.527L16.8,41.524L16.8,41.52C16.8,27.933 27.814,16.92 41.4,16.92C54.986,16.92 66,27.933 66,41.52C66,55.106 54.986,66.12 41.4,66.12C37.573,66.12 33.95,65.246 30.72,63.687L30.72,81.518Z" clip-rule="evenodd" fill-rule="evenodd" fill="#001F23"/>
</svg>
