<svg width="42" height="52" viewBox="0 0 42 52" fill="none" xmlns="http://www.w3.org/2000/svg" xmlns:xlink="http://www.w3.org/1999/xlink">
<path d="M10.08,49.063C9.094,48.407 8.22,47.597 7.492,46.663C6.691,45.699 5.949,44.688 5.27,43.635C3.677,41.3 2.427,38.749 1.559,36.059C0.517,32.934 0.012,29.938 0.012,27.009C0.012,23.737 0.72,20.88 2.105,18.481C3.131,16.605 4.64,15.037 6.475,13.94C8.253,12.835 10.297,12.231 12.391,12.19C13.123,12.19 13.912,12.296 14.75,12.499C15.351,12.67 16.084,12.938 16.98,13.273C18.119,13.712 18.745,13.981 18.958,14.046C19.625,14.29 20.186,14.396 20.626,14.396C20.961,14.396 21.433,14.29 21.969,14.127C22.27,14.021 22.839,13.834 23.653,13.485C24.459,13.191 25.094,12.94 25.598,12.752C26.372,12.524 27.12,12.313 27.787,12.207C28.578,12.082 29.381,12.049 30.18,12.109C31.563,12.199 32.926,12.492 34.225,12.979C36.348,13.834 38.066,15.168 39.344,17.065C38.803,17.398 38.296,17.782 37.83,18.212C36.813,19.113 35.948,20.17 35.266,21.344C34.374,22.949 33.911,24.757 33.923,26.593C33.956,28.848 34.534,30.834 35.673,32.551C36.511,33.823 37.599,34.912 38.872,35.749C39.523,36.188 40.084,36.49 40.622,36.693C40.37,37.474 40.101,38.23 39.784,38.98C39.065,40.662 38.193,42.275 37.18,43.798C36.276,45.109 35.569,46.085 35.031,46.735C34.194,47.727 33.387,48.485 32.573,49.013C31.678,49.607 30.62,49.924 29.545,49.924C28.817,49.952 28.089,49.864 27.389,49.663C26.787,49.46 26.192,49.24 25.606,48.988C24.997,48.708 24.369,48.472 23.726,48.28C22.138,47.873 20.474,47.87 18.884,48.273C18.233,48.46 17.606,48.679 16.987,48.948C16.117,49.313 15.539,49.559 15.205,49.663C14.537,49.859 13.845,49.98 13.145,50.021C12.062,50.021 11.053,49.712 10.053,49.085L10.08,49.063ZM24.361,10.602C22.945,11.31 21.594,11.612 20.251,11.513C20.041,10.162 20.251,8.779 20.812,7.265C21.29,5.982 21.996,4.796 22.895,3.765C23.845,2.679 24.998,1.789 26.289,1.145C27.664,0.437 28.975,0.054 30.228,-0.002C30.391,1.413 30.228,2.806 29.708,4.31C29.226,5.64 28.522,6.879 27.625,7.973C26.709,9.06 25.586,9.954 24.32,10.601L24.361,10.602Z" fill="#000000"/>
</svg>
