<svg width="52" height="50" viewBox="0 0 52 50" fill="none" xmlns="http://www.w3.org/2000/svg" xmlns:xlink="http://www.w3.org/1999/xlink">
<path d="M45.111,0L6.222,0C3.153,0 0.667,2.486 0.667,5.556L0.667,44.444C0.667,47.514 3.153,50 6.222,50L45.111,50C48.181,50 50.667,47.514 50.667,44.444L50.667,5.556C50.667,2.486 48.181,0 45.111,0ZM17.333,38.889L10.325,38.889L10.325,19.444L17.333,19.444L17.333,38.889ZM13.706,15.881C11.564,15.881 10.133,14.453 10.133,12.547C10.133,10.642 11.561,9.214 13.942,9.214C16.083,9.214 17.514,10.642 17.514,12.547C17.514,14.453 16.086,15.881 13.706,15.881ZM42.333,38.889L35.55,38.889L35.55,28.261C35.55,25.322 33.742,24.644 33.064,24.644C32.386,24.644 30.125,25.097 30.125,28.261C30.125,28.714 30.125,38.889 30.125,38.889L23.117,38.889L23.117,19.444L30.125,19.444L30.125,22.158C31.028,20.575 32.836,19.444 36.228,19.444C39.62,19.444 42.333,22.158 42.333,28.261L42.333,38.889Z" fill="#0B65C2"/>
</svg>
