<svg width="32" height="22" viewBox="0 0 32 22" fill="none" xmlns="http://www.w3.org/2000/svg" xmlns:xlink="http://www.w3.org/1999/xlink">
<path d="M16.307,4.569C20.778,4.569 25.078,6.277 28.318,9.341C28.562,9.577 28.952,9.574 29.192,9.334L31.525,6.993C31.646,6.871 31.714,6.706 31.713,6.535C31.712,6.363 31.642,6.199 31.519,6.078C23.015,-2.026 9.598,-2.026 1.093,6.078C0.97,6.199 0.9,6.363 0.899,6.535C0.898,6.706 0.966,6.871 1.087,6.993L3.42,9.334C3.661,9.574 4.051,9.577 4.295,9.341C7.535,6.277 11.836,4.569 16.307,4.569ZM16.307,12.184C18.763,12.184 21.132,13.092 22.953,14.731C23.199,14.964 23.587,14.959 23.827,14.72L26.157,12.379C26.28,12.257 26.348,12.09 26.346,11.917C26.344,11.744 26.273,11.579 26.148,11.459C20.603,6.33 12.016,6.33 6.471,11.459C6.346,11.579 6.274,11.744 6.273,11.917C6.271,12.09 6.339,12.257 6.462,12.379L8.791,14.72C9.031,14.959 9.419,14.964 9.666,14.731C11.485,13.093 13.852,12.185 16.307,12.184ZM20.974,17.308C20.977,17.481 20.909,17.649 20.784,17.77L16.754,21.814C16.636,21.933 16.475,22 16.307,22C16.139,22 15.978,21.933 15.86,21.814L11.829,17.77C11.705,17.649 11.636,17.481 11.64,17.308C11.644,17.134 11.719,16.97 11.849,16.853C14.422,14.689 18.192,14.689 20.765,16.853C20.895,16.97 20.97,17.134 20.974,17.308Z" clip-rule="evenodd" fill-rule="evenodd" fill="#000000"/>
</svg>
